<svg xmlns="http://www.w3.org/2000/svg" viewBox="0 0 1099 1040">
<g fill="#ff5a52">
<path d="M521 890 c-11 0 -52 -1 -92 -2 -78 -1 -154 -2 -204 -1 -30 0 -31 0
-36 -2 -6 -3 -13 -10 -16 -18 l-2 -5 0 -342 0 -341 2 -6 c3 -8 11 -16 19 -19
l6 -2 119 -1 c273 -2 325 -1 378 5 86 11 145 34 183 73 24 25 39 54 46 90 6
26 6 58 2 82 -7 42 -29 78 -62 103 -17 13 -26 18 -37 22 -12 4 -12 4 -12 12 0
8 0 8 10 13 14 7 37 25 49 38 21 23 32 48 35 84 6 63 -14 118 -57 155 -24 20
-59 37 -96 47 -35 9 -60 12 -117 14 -18 1 -93 2 -118 1z"/>
</g>
</svg>
