<svg xmlns="http://www.w3.org/2000/svg" viewBox="0 0 1371 1337" fill="#ff5a52">
<path d="M0 6685 l0 -6685 6855 0 6855 0 0 6685 0 6685 -6855 0 -6855 0 0
-6685z m4850 4956 c551 -103 885 -358 990 -756 42 -160 44 -415 5 -566 -51
-194 -184 -357 -403 -492 -136 -83 -134 -104 11 -179 277 -142 451 -356 498
-610 7 -37 16 -65 20 -62 4 2 27 39 52 82 136 235 407 511 672 685 127 83 369
199 512 246 673 223 1434 106 1983 -305 404 -302 670 -659 814 -1092 227 -684
118 -1416 -295 -1998 -216 -304 -501 -544 -844 -710 -211 -102 -375 -155 -599
-194 -120 -20 -150 -38 -148 -87 0 -15 37 -156 81 -313 170 -604 517 -1806
524 -1817 5 -7 26 -13 47 -13 l39 0 30 94 c57 176 159 540 281 995 191 715
298 1075 346 1158 48 83 -5 78 834 81 836 3 782 7 844 -71 l31 -39 0 -1932 0
-1933 -29 -37 c-40 -53 -103 -80 -168 -71 -28 4 -213 2 -412 -5 -525 -17 -602
-5 -656 100 -20 38 -20 56 -20 844 0 442 -3 812 -6 821 -10 24 -61 47 -82 36
-13 -7 -75 -211 -241 -793 -279 -976 -255 -902 -297 -948 -52 -57 -82 -64
-289 -62 -468 2 -629 8 -661 25 -34 18 -80 66 -88 94 -3 10 -109 380 -236 823
-127 443 -236 815 -242 827 -13 27 -59 47 -87 38 l-21 -6 0 -830 c0 -678 -2
-836 -14 -862 -17 -42 -66 -83 -114 -97 -25 -8 -200 -10 -538 -8 l-501 3 -41
28 c-83 58 -76 -50 -82 1310 l-5 1209 -24 19 c-48 39 -77 26 -145 -65 -303
-402 -730 -687 -1211 -811 -204 -53 -340 -69 -570 -69 -227 0 -352 16 -560 69
-393 101 -728 296 -1021 596 -667 685 -822 1689 -392 2544 214 424 570 779
999 997 l104 53 -822 5 c-816 5 -822 5 -850 26 -15 12 -40 45 -55 74 l-28 52
0 1887 c1 2006 -1 1930 47 1983 10 12 32 29 48 40 29 18 79 18 1445 15 l1415
-2 125 -24z M5614 7948 c-154 -117 -345 -217 -514 -268 l-55 -17 80 -25 c173
-55 345 -144 599 -313 l29 -20 -6 35 c-46 227 -73 476 -63 588 3 39 4 72 2 72
-1 0 -34 -24 -72 -52z M6552 6099 c3 -8 18 -80 34 -161 l28 -148 181 1 c99 1
209 4 244 8 l65 6 -145 69 c-79 39 -194 102 -256 142 -142 92 -158 101 -151
83z"/>
</svg>