<svg xmlns="http://www.w3.org/2000/svg" viewBox="0 0 1371 1337" fill="#fffff3">
<path d="M0 6685 l0 -6685 6860 0 6860 0 0 6685 0 6685 -6860 0 -6860 0 0
-6685z m5120 4970 c741 -91 1140 -464 1140 -1065 0 -193 -38 -345 -120 -473
-56 -90 -190 -214 -310 -288 -95 -58 -100 -63 -100 -95 0 -33 3 -35 93 -80 50
-26 117 -63 147 -83 82 -54 191 -162 245 -243 64 -94 99 -184 130 -331 3 -15
10 -25 14 -22 5 3 28 37 50 76 61 106 169 245 280 361 679 710 1745 889 2619
441 258 -132 564 -392 753 -638 118 -153 236 -367 303 -549 49 -129 100 -332
122 -481 23 -161 23 -448 0 -610 -129 -891 -772 -1614 -1638 -1839 -73 -19
-171 -41 -218 -48 -90 -13 -130 -37 -130 -76 0 -25 117 -443 339 -1217 99
-341 198 -689 222 -774 37 -132 47 -154 67 -162 13 -5 34 -6 48 -3 21 5 29 23
68 148 66 209 131 441 261 926 187 701 303 1091 348 1173 44 79 -8 74 826 81
l743 7 45 -22 c24 -12 55 -37 68 -57 l25 -37 0 -1930 0 -1930 -24 -36 c-48
-70 -34 -68 -613 -71 l-519 -3 -43 28 c-27 18 -50 44 -62 70 -18 40 -19 78
-19 848 0 754 -1 808 -17 827 -20 24 -62 36 -80 24 -6 -4 -115 -372 -242 -817
-127 -446 -239 -830 -248 -855 -22 -60 -69 -105 -124 -120 -57 -16 -830 -5
-863 12 -28 14 -65 49 -77 71 -6 10 -118 391 -249 848 -132 457 -244 837 -251
845 -6 7 -26 16 -45 20 -68 13 -64 71 -64 -855 l0 -836 -24 -36 c-51 -75 -40
-74 -602 -77 l-501 -3 -53 28 c-38 20 -59 39 -74 68 -21 40 -21 46 -26 1246
-5 1169 -6 1208 -24 1228 -26 29 -81 28 -106 -1 -11 -13 -55 -68 -98 -123
-636 -803 -1792 -1051 -2722 -585 -223 112 -405 246 -586 431 -828 850 -845
2154 -40 3053 154 171 418 371 631 477 55 28 104 55 109 60 6 5 -301 9 -805 9
l-814 0 -37 25 c-21 14 -46 46 -62 77 l-26 52 0 1880 c0 1263 4 1893 10 1918
13 47 55 97 95 114 24 11 280 13 1380 14 1153 0 1369 -2 1475 -15z M5971 7929
c-142 -106 -296 -185 -467 -240 -77 -25 -76 -26 42 -65 121 -39 286 -122 443
-223 79 -50 145 -90 148 -88 2 3 -7 69 -21 148 -34 189 -49 366 -42 462 4 42
3 77 -1 77 -5 -1 -50 -32 -102 -71z M6940 6097 c0 -17 60 -300 64 -304 2 -2
115 -2 252 -1 l249 3 -161 82 c-89 45 -214 116 -278 157 -64 42 -118 76 -121
76 -3 0 -5 -6 -5 -13z"/>
</svg>